<?xml version="1.0" standalone="no"?>
<!DOCTYPE svg PUBLIC "-//W3C//DTD SVG 20010904//EN"
 "http://www.w3.org/TR/2001/REC-SVG-20010904/DTD/svg10.dtd">
<svg version="1.0" xmlns="http://www.w3.org/2000/svg"
 width="500.000000pt" height="500.000000pt" viewBox="0 0 500.000000 500.000000"
 preserveAspectRatio="xMidYMid meet">

<g transform="translate(0.000000,500.000000) scale(0.100000,-0.100000)"
fill="#000000" stroke="none">
<path d="M2280 4440 c-493 -69 -890 -313 -1156 -711 -55 -82 -144 -254 -144
-277 0 -8 66 -52 78 -52 4 0 26 37 47 82 209 433 578 725 1046 830 91 20 130
23 319 23 172 0 232 -4 300 -19 143 -31 239 -65 375 -131 201 -99 376 -240
512 -412 37 -46 72 -83 79 -83 13 0 34 58 34 93 0 24 -99 145 -182 223 -227
212 -498 353 -798 414 -119 24 -399 35 -510 20z"/>
<path d="M2812 2688 c-21 -21 -13 -40 37 -93 60 -63 76 -112 66 -201 -6 -55
-4 -64 12 -73 38 -20 63 26 63 114 0 80 -34 160 -91 217 -50 50 -66 57 -87 36z"/>
<path d="M1830 1785 c-7 -8 -10 -25 -6 -40 l6 -25 637 2 c593 3 637 4 647 21
8 12 8 22 0 35 -10 16 -54 17 -641 20 -549 2 -632 0 -643 -13z"/>
<path d="M1824 1375 c-4 -8 -3 -26 0 -40 l6 -25 634 0 c556 0 635 2 646 15 10
12 10 21 2 40 l-12 25 -635 0 c-556 0 -636 -2 -641 -15z"/>
</g>
</svg>
